{
  "source": "C:\\Users\\Peter\\Desktop\\stuff\\MIUN\\quantitative_research\\video_compression\\videos\\BVI-HD\\RockWave_1920x1080_30fps.mp4",
  "output": "C:\\Users\\Peter\\Desktop\\stuff\\MIUN\\quantitative_research\\video_compression\\compressed_videos\\BVI-HD\\h264\\12\\RockWave_1920x1080_30fps_h264.mp4",
  "codec": "h264",
  "ok": "Input #0, mov,mp4,m4a,3gp,3g2,mj2, from 'C:\\Users\\Peter\\Desktop\\stuff\\MIUN\\quantitative_research\\video_compression\\videos\\BVI-HD\\RockWave_1920x1080_30fps.mp4':\n  Metadata:\n    major_brand     : isom\n    minor_version   : 512\n    compatible_brands: isomiso2avc1mp41\n    encoder         : Lavf54.28.101\n  Duration: 00:00:05.00, start: 0.000000, bitrate: 303557 kb/s\n  Stream #0:0[0x1](und): Video: h264 (High 4:4:4 Predictive) (avc1 / 0x31637661), yuv420p(progressive), 1920x1080, 303553 kb/s, 30 fps, 30 tbr, 30 tbn (default)\n    Metadata:\n      handler_name    : VideoHandler\n      vendor_id       : [0][0][0][0]\n[out#0/mp4 @ 000002adeaeb9a80] Codec AVOption b:a (set bitrate (in bits/s)) has not been used for any stream. The most likely reason is either wrong type (e.g. a video option with no video streams) or that it is a private option of some decoder which was not actually used for any stream.\nStream mapping:\n  Stream #0:0 -> #0:0 (h264 (native) -> h264 (libx264))\nPress [q] to stop, [?] for help\n[libx264 @ 000002adebc675c0] using cpu capabilities: MMX2 SSE2Fast SSSE3 SSE4.2 AVX FMA3 BMI2 AVX2\n[libx264 @ 000002adebc675c0] profile High, level 5.0, 4:2:0, 8-bit\n[libx264 @ 000002adebc675c0] 264 - core 165 r3222 b35605a - H.264/MPEG-4 AVC codec - Copyleft 2003-2025 - http://www.videolan.org/x264.html - options: cabac=1 ref=5 deblock=1:0:0 analyse=0x3:0x113 me=hex subme=8 psy=1 psy_rd=1.00:0.00 mixed_ref=1 me_range=16 chroma_me=1 trellis=2 8x8dct=1 cqm=0 deadzone=21,11 fast_pskip=1 chroma_qp_offset=-2 threads=18 lookahead_threads=3 sliced_threads=0 nr=0 decimate=1 interlaced=0 bluray_compat=0 constrained_intra=0 bframes=3 b_pyramid=2 b_adapt=1 b_bias=0 direct=3 weightb=1 open_gop=0 weightp=2 keyint=250 keyint_min=25 scenecut=40 intra_refresh=0 rc_lookahead=50 rc=cbr mbtree=1 bitrate=12000 ratetol=1.0 qcomp=0.60 qpmin=0 qpmax=69 qpstep=4 vbv_maxrate=12000 vbv_bufsize=12000 nal_hrd=none filler=0 ip_ratio=1.40 aq=1:1.00\nOutput #0, mp4, to 'C:\\Users\\Peter\\Desktop\\stuff\\MIUN\\quantitative_research\\video_compression\\compressed_videos\\BVI-HD\\h264\\12\\RockWave_1920x1080_30fps_h264.mp4':\n  Metadata:\n    major_brand     : isom\n    minor_version   : 512\n    compatible_brands: isomiso2avc1mp41\n    encoder         : Lavf62.3.100\n  Stream #0:0(und): Video: h264 (avc1 / 0x31637661), yuv420p(tv, progressive), 1920x1080, q=2-31, 12000 kb/s, 30 fps, 15360 tbn (default)\n    Metadata:\n      encoder         : Lavc62.11.100 libx264\n      handler_name    : VideoHandler\n      vendor_id       : [0][0][0][0]\n    Side data:\n      cpb: bitrate max/min/avg: 12000000/0/12000000 buffer size: 12000000 vbv_delay: N/A\nframe=    0 fps=0.0 q=0.0 size=       0KiB time=N/A bitrate=N/A speed=N/A elapsed=0:00:00.51    \nframe=    0 fps=0.0 q=0.0 size=       0KiB time=N/A bitrate=N/A speed=N/A elapsed=0:00:01.09    \nframe=    0 fps=0.0 q=0.0 size=       0KiB time=N/A bitrate=N/A speed=N/A elapsed=0:00:01.63    \nframe=    0 fps=0.0 q=0.0 size=       0KiB time=N/A bitrate=N/A speed=N/A elapsed=0:00:02.27    \nframe=    1 fps=0.3 q=36.0 size=       0KiB time=-00:00:00.03 bitrate=N/A speed=N/A elapsed=0:00:02.89    \nframe=    8 fps=2.3 q=37.0 size=     512KiB time=00:00:00.13 bitrate=31460.2kbits/s speed=0.0384x elapsed=0:00:03.47    \nframe=   21 fps=5.2 q=37.0 size=    1024KiB time=00:00:00.63 bitrate=13245.8kbits/s speed=0.157x elapsed=0:00:04.03    \nframe=   29 fps=6.2 q=37.0 size=    1536KiB time=00:00:00.90 bitrate=13981.4kbits/s speed=0.194x elapsed=0:00:04.64    \nframe=   41 fps=7.8 q=37.0 size=    2048KiB time=00:00:01.30 bitrate=12905.8kbits/s speed=0.247x elapsed=0:00:05.26    \nframe=   45 fps=7.6 q=37.0 size=    2304KiB time=00:00:01.43 bitrate=13168.4kbits/s speed=0.243x elapsed=0:00:05.89    \nframe=   57 fps=8.9 q=36.0 size=    2816KiB time=00:00:01.83 bitrate=12583.1kbits/s speed=0.285x elapsed=0:00:06.43    \nframe=   73 fps= 11 q=36.0 size=    3584KiB time=00:00:02.36 bitrate=12405.8kbits/s speed=0.341x elapsed=0:00:06.94    \nframe=   85 fps= 11 q=36.0 size=    4096KiB time=00:00:02.76 bitrate=12128.2kbits/s speed=0.37x elapsed=0:00:07.47    \nframe=   93 fps= 12 q=36.0 size=    4352KiB time=00:00:03.03 bitrate=11753.4kbits/s speed=0.379x elapsed=0:00:08.01    \nframe=  105 fps= 12 q=36.0 size=    4864KiB time=00:00:03.36 bitrate=11835.5kbits/s speed=0.392x elapsed=0:00:08.58    \nframe=  117 fps= 13 q=35.0 size=    5376KiB time=00:00:03.83 bitrate=11488.8kbits/s speed=0.418x elapsed=0:00:09.18    \nframe=  121 fps= 12 q=34.0 size=    5632KiB time=00:00:03.96 bitrate=11631.4kbits/s speed=0.409x elapsed=0:00:09.70    \nframe=  142 fps= 14 q=-1.0 size=    6656KiB time=00:00:04.66 bitrate=11684.2kbits/s speed=0.455x elapsed=0:00:10.24    \n[mp4 @ 000002adeaec1580] Starting second pass: moving the moov atom to the beginning of the file\n[out#0/mp4 @ 000002adeaeb9a80] video:7282KiB audio:0KiB subtitle:0KiB other streams:0KiB global headers:0KiB muxing overhead: 0.036947%\nframe=  150 fps= 14 q=-1.0 Lsize=    7285KiB time=00:00:04.93 bitrate=12096.3kbits/s speed=0.475x elapsed=0:00:10.39    \n[libx264 @ 000002adebc675c0] frame I:2     Avg QP:31.00  size:140360\n[libx264 @ 000002adebc675c0] frame P:38    Avg QP:35.00  size: 71229\n[libx264 @ 000002adebc675c0] frame B:110   Avg QP:37.72  size: 40622\n[libx264 @ 000002adebc675c0] consecutive B-frames:  2.0%  0.0%  2.0% 96.0%\n[libx264 @ 000002adebc675c0] mb I  I16..4: 18.2% 65.6% 16.2%\n[libx264 @ 000002adebc675c0] mb P  I16..4:  3.9% 23.6%  1.9%  P16..4: 36.1% 12.8%  5.1%  0.0%  0.0%    skip:16.6%\n[libx264 @ 000002adebc675c0] mb B  I16..4:  0.2%  3.6%  0.3%  B16..8: 39.4% 10.4%  3.3%  direct: 8.4%  skip:34.3%  L0:43.3% L1:42.1% BI:14.6%\n[libx264 @ 000002adebc675c0] 8x8 transform intra:80.4% inter:64.1%\n[libx264 @ 000002adebc675c0] direct mvs  spatial:90.9% temporal:9.1%\n[libx264 @ 000002adebc675c0] coded y,uvDC,uvAC intra: 76.7% 14.7% 0.2% inter: 30.0% 2.8% 0.0%\n[libx264 @ 000002adebc675c0] i16 v,h,dc,p: 31% 26% 20% 23%\n[libx264 @ 000002adebc675c0] i8 v,h,dc,ddl,ddr,vr,hd,vl,hu:  7%  7% 10% 11% 13%  9% 15% 11% 17%\n[libx264 @ 000002adebc675c0] i4 v,h,dc,ddl,ddr,vr,hd,vl,hu:  6%  8% 10% 10% 12%  9% 14% 10% 21%\n[libx264 @ 000002adebc675c0] i8c dc,h,v,p: 88%  9%  3%  0%\n[libx264 @ 000002adebc675c0] Weighted P-Frames: Y:7.9% UV:0.0%\n[libx264 @ 000002adebc675c0] ref P L0: 47.6% 15.2% 19.5%  8.9%  8.2%  0.7%\n[libx264 @ 000002adebc675c0] ref B L0: 86.4%  8.5%  3.5%  1.6%\n[libx264 @ 000002adebc675c0] ref B L1: 96.7%  3.3%\n[libx264 @ 000002adebc675c0] kb/s:11929.36\n",
  "seconds": 10.904913425445557,
  "probe_out": {}
}